<?xml version="1.0" standalone="no"?><!DOCTYPE svg PUBLIC "-//W3C//DTD SVG 1.1//EN" "http://www.w3.org/Graphics/SVG/1.1/DTD/svg11.dtd"><svg t="1683515066893" class="icon" viewBox="0 0 1024 1024" version="1.1" xmlns="http://www.w3.org/2000/svg" p-id="1586" xmlns:xlink="http://www.w3.org/1999/xlink" width="128" height="128"><path d="M652.8 921.6C476.16 921.6 332.8 778.24 332.8 601.6S476.16 281.6 652.8 281.6 972.8 424.96 972.8 601.6 829.44 921.6 652.8 921.6z m0-588.8C504.32 332.8 384 453.12 384 601.6S504.32 870.4 652.8 870.4s268.8-120.32 268.8-268.8S801.28 332.8 652.8 332.8z" fill="#333333" p-id="1587"></path><path d="M652.8 729.6c-70.656 0-128-57.856-128-128s57.344-128 128-128 128 57.856 128 128-57.344 128-128 128z m0-204.8c-42.496 0-76.8 34.816-76.8 76.8s34.816 76.8 76.8 76.8 76.8-34.816 76.8-76.8-34.304-76.8-76.8-76.8zM870.4 1024c-59.904 0-113.664-34.816-139.776-88.576l-19.456-40.96c-6.656-12.8 0-28.16 12.8-34.816 12.8-6.656 28.16 0 34.816 12.8l19.456 40.96c16.896 35.84 53.76 58.88 92.16 58.88 15.36 0 29.696-4.096 43.52-10.24 24.576-11.776 43.52-32.256 52.224-57.856 9.216-25.6 7.68-53.76-4.096-78.336l-55.296-117.76c-6.656-12.8 0-28.16 12.8-34.816s28.16 0 34.816 12.8l55.296 117.76c17.92 37.376 19.456 79.36 5.12 117.76s-42.496 69.12-79.36 87.04c-19.968 10.24-41.984 15.36-65.024 15.36z m-435.2 0c-23.04 0-44.544-5.12-65.536-15.36-75.264-35.84-108.544-126.464-72.704-203.264l55.296-117.76c6.656-12.8 22.016-17.92 34.816-12.8C399.36 680.96 404.48 696.32 399.36 709.12l-55.296 117.76c-23.04 51.2-1.536 111.616 48.64 135.68 13.824 6.656 28.16 10.24 43.52 10.24 39.936 0 75.776-23.04 92.16-58.88l19.456-40.96c6.656-12.8 22.016-17.92 34.816-12.8 12.8 6.656 17.92 22.016 12.8 34.816l-19.456 40.96c-26.624 53.76-81.92 88.064-140.8 88.064z" fill="#333333" p-id="1588"></path><path d="M76.8 1024c-14.336 0-25.6-11.776-25.6-25.6V153.6C51.2 69.12 120.32 0 204.8 0h358.4c84.48 0 153.6 69.12 153.6 153.6v156.16c0 14.336-11.776 25.6-25.6 25.6s-25.6-11.264-25.6-25.6V153.6c0-56.32-46.08-102.4-102.4-102.4H204.8c-56.32 0-102.4 46.08-102.4 102.4v844.8c0 14.336-11.264 25.6-25.6 25.6z" fill="#333333" p-id="1589"></path><path d="M435.2 1024H25.6c-14.336 0-25.6-11.776-25.6-25.6s11.776-25.6 25.6-25.6h409.6c14.336 0 25.6 11.776 25.6 25.6 0 14.336-11.264 25.6-25.6 25.6zM320 230.4H204.8c-14.336 0-25.6-11.776-25.6-25.6s11.776-25.6 25.6-25.6h115.2c14.336 0 25.6 11.776 25.6 25.6s-11.264 25.6-25.6 25.6z m243.2 0H448c-14.336 0-25.6-11.776-25.6-25.6s11.776-25.6 25.6-25.6H563.2c14.336 0 25.6 11.776 25.6 25.6s-11.776 25.6-25.6 25.6zM256 409.6H204.8c-14.336 0-25.6-11.776-25.6-25.6s11.776-25.6 25.6-25.6h51.2c13.824 0 25.6 11.776 25.6 25.6s-11.264 25.6-25.6 25.6z m691.2 217.6c-14.336 0-25.6-11.776-25.6-25.6v-281.6c0-56.32-46.08-102.4-102.4-102.4h-128c-14.336 0-25.6-11.776-25.6-25.6s11.776-25.6 25.6-25.6h128c84.48 0 153.6 69.12 153.6 153.6v281.6c0 14.336-11.264 25.6-25.6 25.6z" fill="#333333" p-id="1590"></path></svg>